<svg width="512" height="512" viewBox="0 0 512 512" fill="none" xmlns="http://www.w3.org/2000/svg">
  <rect width="512" height="512" fill="#F0FDF4"/>
  <path d="M128 160C128 142.327 142.327 128 160 128H352C369.673 128 384 142.327 384 160V416H128V160Z" fill="#DCFCE7"/>
  <path d="M160 96V128M352 96V128" stroke="#10B981" stroke-width="32" stroke-linecap="round"/>
  <rect x="160" y="224" width="64" height="64" rx="8" fill="#10B981" fill-opacity="0.2"/>
  <rect x="256" y="224" width="64" height="64" rx="8" fill="#10B981" fill-opacity="0.2"/>
  <rect x="160" y="320" width="64" height="64" rx="8" fill="#10B981" fill-opacity="0.2"/>
  <path d="M128 160C128 142.327 142.327 128 160 128H352C369.673 128 384 142.327 384 160V192H128V160Z" fill="#10B981"/>
</svg>
